PathFileType	4	(X/Y/Z)	Static 1_gm.trc
DataRate	CameraRate	NumFrames	NumMarkers	Units	OrigDataRate	OrigDataStartFrame	OrigNumFrames
150	150	4	82	mm	150	1	529
Frame#	Time	P1			P2			P3			ST1			ST2			ST3			LACR1			LACR2			LACR3			LUA1			LUA2			LUA3			LUA4			LLA1			LLA2			LLA3			LLA4			LH1			LH2			LH3			RACR1			RACR2			RACR3			RUA1			RUA2			RUA3			RUA4			RLA1			RLA2			RLA3			RLA4			RH1			RH2			RH3			REL			REM			RRS			RUS			RMC3			RMCP2			RMCP3			RMCP5			RAA			RAI			RTS			RPC			RAC			RGH			C7			T8			IJ			PX			RElevationplaneH2			RShoulderElevationH2			RShoulderRotationH2			RElevationplaneH1			RShoulderElevationH1			RShoulderRotationH1			RElbowFlExt			RElbowProSupination			RWristFlExt			RWristDeviation			RScapProRetraction			RScapRotation			RScapTilting			RTrunkFlExt			RTrunkLateralFl			RTrunkAxialRotation			RH2SAG_Flexion			RH2SAG_Abduction			RH2SAG_Rotation			RH2FRONT_Abduction			RH2FRONT_Flexion			RH2FRONT_Rotation			RH1SAG_Flexion			RH1SAG_Abduction			RH1SAG_Rotation			RH1FRONT_Abduction			RH1FRONT_Flexion			RH1FRONT_Rotation			REB			HWM		
		X1	Y1	Z1	X2	Y2	Z2	X3	Y3	Z3	X4	Y4	Z4	X5	Y5	Z5	X6	Y6	Z6	X7	Y7	Z7	X8	Y8	Z8	X9	Y9	Z9	X10	Y10	Z10	X11	Y11	Z11	X12	Y12	Z12	X13	Y13	Z13	X14	Y14	Z14	X15	Y15	Z15	X16	Y16	Z16	X17	Y17	Z17	X18	Y18	Z18	X19	Y19	Z19	X20	Y20	Z20	X21	Y21	Z21	X22	Y22	Z22	X23	Y23	Z23	X24	Y24	Z24	X25	Y25	Z25	X26	Y26	Z26	X27	Y27	Z27	X28	Y28	Z28	X29	Y29	Z29	X30	Y30	Z30	X31	Y31	Z31	X32	Y32	Z32	X33	Y33	Z33	X34	Y34	Z34	X35	Y35	Z35	X36	Y36	Z36	X37	Y37	Z37	X38	Y38	Z38	X39	Y39	Z39	X40	Y40	Z40	X41	Y41	Z41	X42	Y42	Z42	X43	Y43	Z43	X44	Y44	Z44	X45	Y45	Z45	X46	Y46	Z46	X47	Y47	Z47	X48	Y48	Z48	X49	Y49	Z49	X50	Y50	Z50	X51	Y51	Z51	X52	Y52	Z52	X53	Y53	Z53	X54	Y54	Z54	X55	Y55	Z55	X56	Y56	Z56	X57	Y57	Z57	X58	Y58	Z58	X59	Y59	Z59	X60	Y60	Z60	X61	Y61	Z61	X62	Y62	Z62	X63	Y63	Z63	X64	Y64	Z64	X65	Y65	Z65	X66	Y66	Z66	X67	Y67	Z67	X68	Y68	Z68	X69	Y69	Z69	X70	Y70	Z70	X71	Y71	Z71	X72	Y72	Z72	X73	Y73	Z73	X74	Y74	Z74	X75	Y75	Z75	X76	Y76	Z76	X77	Y77	Z77	X78	Y78	Z78	X79	Y79	Z79	X80	Y80	Z80	X81	Y81	Z81	X82	Y82	Z82
	
1	0.000000	340.574280	1633.068115	-769.957886	249.413086	1702.125610	-757.695251	196.134720	1599.006226	-764.999695	326.700653	1166.165039	-26.784227	348.695190	1113.804810	5.470378	329.252808	1165.680664	29.316332	273.103851	1267.053467	-212.849991	181.125824	1228.847900	-148.576065	213.849609	1170.047974	-237.424332	229.195023	1075.197876	-215.264542	247.884964	1007.517944	-216.095581	286.966309	1026.594727	-196.758057	281.770172	1101.201660	-195.891876	446.403351	737.105164	-200.256104	515.408264	748.143250	-264.738464	547.619995	822.778015	-159.538971	458.230194	771.795105	-141.723984	531.183960	702.853516	-191.693741	580.281921	701.813965	-176.353607	545.512817	726.835815	-149.459946	286.029572	1255.324463	238.670883	240.862213	1158.405029	264.485016	204.755630	1217.438354	174.600174	306.390411	1066.789551	217.113098	316.298981	1005.825012	214.132767	261.718872	987.889404	233.758133	253.666840	1055.531372	234.691452	470.896271	779.287415	154.079163	566.123352	817.258972	154.820190	537.346863	738.756470	252.857590	458.858032	729.944397	195.890991	553.849976	727.853210	128.652237	591.509460	707.824036	154.142548	543.849121	698.109131	177.854782	330.815613	852.931091	228.610153	288.210724	837.655396	184.902390	521.253357	721.647705	122.149910	521.155518	715.758789	171.507385	560.023132	707.779114	150.816360	604.380371	704.245972	122.832565	607.489319	694.653687	149.917252	580.641296	668.486450	172.498245	189.533875	1159.792847	145.458389	157.484940	1035.867188	104.671669	174.871628	1175.801514	78.060150	292.148560	1155.272339	131.571259	266.603027	1187.107544	170.402466	265.427124	1143.660034	156.913284	195.655060	1252.020996	2.940779	151.788330	1095.901489	16.941523	300.403992	1175.426636	3.033355	353.784241	1008.663025	2.867827	0.000000	0.000000	41.798367	0.000000	0.000000	-9.624439	0.000000	0.000000	-20.449759	0.000000	0.000000	41.798367	0.000000	0.000000	-9.624439	0.000000	0.000000	0.530076	0.000000	0.000000	49.619617	0.000000	0.000000	138.602905	0.000000	0.000000	-16.704826	0.000000	0.000000	5.062096	0.000000	0.000000	10.163629	0.000000	0.000000	15.819265	0.000000	0.000000	-10.958892	0.000000	0.000000	-0.000000	0.000000	0.000000	0.000000	0.000000	0.000000	-0.000000	0.000000	0.000000	6.448455	0.000000	0.000000	-7.159897	0.000000	0.000000	21.752470	0.000000	0.000000	-7.205006	0.000000	0.000000	6.397960	0.000000	0.000000	20.945385	0.000000	0.000000	6.448455	0.000000	0.000000	-7.159897	0.000000	0.000000	42.732304	0.000000	0.000000	-7.205006	0.000000	0.000000	6.397960	0.000000	0.000000	41.925220	309.513184	845.293213	206.756271	521.204468	718.703247	146.828644
2	0.006667	340.646973	1633.136475	-770.180603	249.512344	1702.250000	-757.972900	196.211395	1599.151978	-765.297485	326.717133	1166.165161	-26.768707	348.699860	1113.799194	5.462539	329.254456	1165.717529	29.302334	273.128235	1267.057617	-212.853394	181.154297	1228.857056	-148.603867	213.866470	1170.062256	-237.408447	229.228073	1075.211792	-215.272583	247.872253	1007.515930	-216.082108	287.000977	1026.595703	-196.707901	281.766144	1101.180054	-195.879486	446.408478	737.113647	-200.237793	515.411926	748.144653	-264.717163	547.627136	822.772095	-159.543564	458.228760	771.788330	-141.747757	531.225098	702.867188	-191.687912	580.266602	701.791016	-176.342300	545.563599	726.829529	-149.466812	286.033203	1255.326904	238.670639	240.876968	1158.404907	264.493774	204.731400	1217.439575	174.623047	306.370575	1066.764038	217.119339	316.300903	1005.821411	214.145889	261.711273	987.900757	233.749435	253.678085	1055.539673	234.694260	470.898712	779.292419	154.075348	566.125610	817.285217	154.842285	537.327637	738.742615	252.854050	458.853638	729.978760	195.899582	553.867798	727.850159	128.666351	591.513489	707.839172	154.138474	543.846741	698.127319	177.850494	330.787598	852.922363	228.618057	288.186768	837.652954	184.904129	521.250793	721.672791	122.148117	521.148132	715.774170	171.504425	560.029785	707.789001	150.818344	604.390198	704.250061	122.840355	607.495422	694.661072	149.926636	580.643311	668.498047	172.507706	189.503922	1159.796265	145.486343	157.444336	1035.871582	104.704987	174.816086	1175.807983	78.094398	292.113617	1155.280273	131.560913	266.581329	1187.112427	170.403275	265.402008	1143.665649	156.912247	195.685226	1252.061890	2.911538	151.783676	1095.954590	16.939676	300.417450	1175.444702	3.024291	353.761292	1008.669373	2.893374	0.000000	0.000000	41.894009	0.000000	0.000000	-9.625411	0.000000	0.000000	-20.546207	0.000000	0.000000	41.894009	0.000000	0.000000	-9.625411	0.000000	0.000000	0.428613	0.000000	0.000000	49.628578	0.000000	0.000000	138.597641	0.000000	0.000000	-16.698002	0.000000	0.000000	5.069717	0.000000	0.000000	10.192058	0.000000	0.000000	15.830337	0.000000	0.000000	-10.939872	0.000000	0.000000	-0.010913	0.000000	0.000000	-0.012504	0.000000	0.000000	-0.003054	0.000000	0.000000	6.461043	0.000000	0.000000	-7.149865	0.000000	0.000000	21.751884	0.000000	0.000000	-7.195089	0.000000	0.000000	6.410590	0.000000	0.000000	20.944338	0.000000	0.000000	6.461043	0.000000	0.000000	-7.149865	0.000000	0.000000	42.726704	0.000000	0.000000	-7.195089	0.000000	0.000000	6.410590	0.000000	0.000000	41.919155	309.487183	845.287659	206.761093	521.199463	718.723511	146.826263
3	0.013333	340.745270	1633.212646	-770.402832	249.607651	1702.370117	-758.279907	196.272797	1599.298584	-765.577759	326.711121	1166.140991	-26.803947	348.689331	1113.812378	5.479963	329.229126	1165.731934	29.326986	273.116089	1267.059082	-212.838867	181.154938	1228.861084	-148.584946	213.872650	1170.061890	-237.410690	229.277664	1075.193848	-215.271759	247.905289	1007.521790	-216.087677	287.013672	1026.586914	-196.716949	281.768860	1101.174683	-195.834106	446.383514	737.123047	-200.238861	515.429565	748.146790	-264.756958	547.624634	822.772583	-159.532364	458.231018	771.797485	-141.732803	531.190491	702.851379	-191.695175	580.278442	701.795471	-176.328293	545.586670	726.819214	-149.477219	286.041229	1255.324707	238.660965	240.867966	1158.397583	264.509766	204.731445	1217.449341	174.637589	306.381470	1066.782227	217.126129	316.312012	1005.828735	214.138779	261.721954	987.889465	233.754272	253.688950	1055.530518	234.698380	470.900391	779.274597	154.103775	566.119202	817.281616	154.851761	537.313293	738.700928	252.854721	458.867889	729.973755	195.912857	553.849670	727.852173	128.671066	591.521118	707.822998	154.154938	543.843201	698.119812	177.878586	330.823364	852.929626	228.592575	288.220490	837.660034	184.880722	521.242249	721.670715	122.149704	521.144104	715.760925	171.504684	560.024048	707.782043	150.835648	604.377502	704.236267	122.847481	607.487793	694.648132	149.933487	580.637756	668.489502	172.522018	189.482101	1159.802246	145.504150	157.391083	1035.881470	104.735603	174.788483	1175.812378	78.113091	292.088959	1155.263794	131.565094	266.568604	1187.104004	170.408737	265.378357	1143.656494	156.920837	195.648590	1252.032715	2.818424	151.776703	1095.922729	16.909765	300.397491	1175.438477	3.002327	353.777832	1008.674805	2.970791	0.000000	0.000000	42.052464	0.000000	0.000000	-9.600166	0.000000	0.000000	-20.688440	0.000000	0.000000	42.052464	0.000000	0.000000	-9.600166	0.000000	0.000000	0.291084	0.000000	0.000000	49.604015	0.000000	0.000000	138.579697	0.000000	0.000000	-16.697777	0.000000	0.000000	5.050629	0.000000	0.000000	10.213352	0.000000	0.000000	15.859816	0.000000	0.000000	-10.958197	0.000000	0.000000	-0.039228	0.000000	0.000000	0.000015	0.000000	0.000000	-0.021270	0.000000	0.000000	6.463595	0.000000	0.000000	-7.113381	0.000000	0.000000	21.766197	0.000000	0.000000	-7.158415	0.000000	0.000000	6.413635	0.000000	0.000000	20.962431	0.000000	0.000000	6.463595	0.000000	0.000000	-7.113381	0.000000	0.000000	42.745724	0.000000	0.000000	-7.158415	0.000000	0.000000	6.413635	0.000000	0.000000	41.941956	309.521912	845.294800	206.736649	521.193176	718.715820	146.827194
4	0.020000	340.827759	1633.299927	-770.635925	249.681915	1702.501587	-758.631042	196.383774	1599.401367	-765.956055	326.651855	1166.823242	-26.902395	348.712616	1113.796509	5.480147	329.252411	1165.717529	29.353453	273.114716	1267.053223	-212.829269	181.932404	1228.550659	-148.965210	213.896866	1170.064819	-237.395844	229.672913	1075.636353	-215.737366	247.904160	1007.541016	-216.075180	286.736023	1026.189697	-196.396988	281.798767	1101.185669	-195.823990	446.410461	737.108643	-200.220596	515.410889	748.112976	-264.713379	547.639282	822.791138	-159.521591	458.398560	771.643005	-141.776581	531.193726	702.875916	-191.690094	580.227600	701.144775	-176.859299	544.156677	726.359009	-148.837387	286.027557	1255.348267	238.680771	240.538589	1158.236328	264.534210	204.015701	1216.784180	174.585083	307.180023	1066.592896	217.576340	316.984680	1005.568176	214.479416	263.135864	989.003296	233.369705	255.166153	1056.507202	234.095245	470.897614	779.305481	154.126907	566.100525	817.280945	154.878372	538.432251	738.347900	254.116074	458.850464	729.961975	195.924561	553.860291	727.859375	128.693069	591.527161	707.845276	154.164825	543.835754	698.122314	177.886032	330.404205	852.967834	229.330734	288.131866	837.973328	185.204697	521.411255	721.586243	122.461609	521.421204	715.685364	171.817749	560.028503	707.792480	150.847488	604.388916	704.261536	122.868439	607.495422	694.669434	149.953461	580.646301	668.500854	172.531601	189.010193	1159.284180	145.740234	156.934265	1035.233398	105.357124	174.171997	1175.107788	78.336807	291.592926	1154.787598	131.611389	266.124481	1186.709351	170.422226	264.941101	1143.225952	157.049683	195.805725	1252.465210	3.236689	151.674210	1096.344727	16.367815	300.434845	1175.707275	3.095194	353.555176	1008.863342	2.153772	0.000000	0.000000	41.035038	0.000000	0.000000	-10.006320	0.000000	0.000000	-19.496113	0.000000	0.000000	41.035038	0.000000	0.000000	-10.006320	0.000000	0.000000	0.915271	0.000000	0.000000	49.753567	0.000000	0.000000	138.915283	0.000000	0.000000	-16.695351	0.000000	0.000000	5.110528	0.000000	0.000000	10.410961	0.000000	0.000000	15.363476	0.000000	0.000000	-10.918990	0.000000	0.000000	0.294537	0.000000	0.000000	-0.089341	0.000000	0.000000	-0.087798	0.000000	0.000000	6.607519	0.000000	0.000000	-7.531208	0.000000	0.000000	21.974291	0.000000	0.000000	-7.580983	0.000000	0.000000	6.550269	0.000000	0.000000	21.104475	0.000000	0.000000	6.607519	0.000000	0.000000	-7.531208	0.000000	0.000000	42.385674	0.000000	0.000000	-7.580983	0.000000	0.000000	6.550269	0.000000	0.000000	41.515862	309.268036	845.470581	207.267715	521.416260	718.635803	147.139679
